<svg xmlns="http://www.w3.org/2000/svg" viewBox="0 0 128 128"><path fill="#FF9900" d="M29.7 79.5c0 1.2.1 2.2.4 2.9.2.7.6 1.5 1.1 2.4.2.4.3.7.3 1 0 .4-.2.8-.7 1.2l-2.4 1.6c-.3.2-.7.3-1 .3-.4 0-.8-.2-1.2-.5-.5-.6-.9-1.2-1.2-1.8-.3-.7-.4-1.4-.4-2.2v-.1c-3.4 4-7.7 6-12.8 6-3.7 0-6.6-1.1-8.8-3.2-2.2-2.1-3.3-5-3.3-8.6 0-3.8 1.3-6.9 4-9.3 2.7-2.4 6.2-3.6 10.7-3.6 1.5 0 3 .1 4.6.3 1.6.2 3.2.5 4.9.9v-2.9c0-3-.6-5.1-1.9-6.4-1.3-1.3-3.4-1.9-6.4-1.9-1.4 0-2.8.2-4.2.5s-2.8.7-4.1 1.2c-.6.2-1 .4-1.2.4-.2.1-.4.1-.5.1-.4 0-.7-.3-.7-.9v-1.4c0-.5.1-.8.2-1.1.1-.3.4-.5.8-.7 1.4-.7 3.1-1.3 5-1.7 1.9-.4 4-.6 6.2-.6 4.7 0 8.2 1.1 10.4 3.2 2.2 2.1 3.3 5.4 3.3 9.8v12.9zm-17.7 6.7c1.4 0 2.9-.3 4.5-.8 1.6-.5 3-1.4 4.2-2.5.7-.7 1.3-1.4 1.6-2.3.3-.9.5-1.9.5-3.1v-1.5c-1.4-.3-2.9-.5-4.4-.7-1.5-.2-3-.3-4.4-.3-2.5 0-4.3.5-5.6 1.4-1.3.9-1.9 2.3-1.9 4.1 0 1.6.4 2.8 1.3 3.6.8.9 2 1.3 3.6 1.3l.6-.2zm48.5 2.9c-.5 0-.9-.1-1.2-.3-.3-.2-.6-.6-.7-1.2L48.1 49.3c-.2-.6-.3-1-.3-1.3 0-.5.2-.8.7-.8h3c.5 0 .9.1 1.2.3.3.2.5.6.6 1.2l7.9 31.3 7.4-31.3c.1-.6.3-1 .6-1.2.3-.2.7-.3 1.2-.3h2.4c.5 0 .9.1 1.2.3.3.2.5.6.6 1.2l7.5 31.7 8.1-31.7c.1-.6.4-1 .6-1.2.3-.2.7-.3 1.2-.3h2.8c.5 0 .8.3.8.8 0 .2 0 .4-.1.6 0 .2-.1.5-.2.7L75.4 87.1c-.1.6-.4 1-.7 1.2-.3.2-.7.3-1.2.3h-2.6c-.5 0-.9-.1-1.2-.3-.3-.2-.5-.6-.6-1.2L61.7 56.8 54.3 87.1c-.1.6-.3 1-.6 1.2-.3.2-.7.3-1.2.3h-2.6zm39.4.8c-1.9 0-3.8-.2-5.6-.7-1.8-.5-3.2-1-4.2-1.7-.5-.4-.9-.8-1-1.3-.1-.5-.2-.9-.2-1.3v-1.5c0-.6.3-.9.7-.9.2 0 .4 0 .6.1.2.1.5.2.8.4 1.3.6 2.7 1 4.1 1.3 1.5.3 2.9.5 4.4.5 2.3 0 4.1-.4 5.4-1.2 1.3-.8 1.9-2 1.9-3.6 0-1.1-.3-2-.9-2.7-.6-.7-1.7-1.3-3.2-1.8l-4.6-1.4c-2.3-.7-4-1.7-5.1-3.1-1.1-1.4-1.6-3-1.6-4.8 0-1.4.3-2.6.8-3.7.5-1.1 1.3-2.1 2.3-2.9.9-.8 2.1-1.4 3.4-1.8 1.3-.4 2.8-.6 4.4-.6.8 0 1.6.1 2.4.2.8.1 1.6.3 2.3.5.7.2 1.4.4 2 .7.6.3 1.1.6 1.4.9.4.3.6.6.8 1 .2.4.2.8.2 1.3v1.4c0 .6-.3.9-.7.9-.3 0-.7-.1-1.2-.4-1.8-.8-3.8-1.2-6-1.2-2.1 0-3.7.3-4.9 1-.1.7-1.7 1.7-1.7 3.1 0 1.1.4 2 1.1 2.7.7.7 1.9 1.3 3.5 1.9l4.5 1.4c2.3.7 3.9 1.7 5 2.9 1.1 1.2 1.6 2.7 1.6 4.6 0 1.4-.3 2.7-.8 3.8-.6 1.2-1.4 2.2-2.4 3-.1.8-2.2 1.5-3.6 1.9-1.4.4-2.9.6-4.5.6z"/><path fill="#FF9900" d="M121.4 111.5c-18.8 13.9-46.2 21.3-69.7 21.3-33 0-62.7-12.2-85.2-32.5-1.8-1.6-.2-3.8 1.9-2.5 24.8 14.4 55.5 23.1 87.2 23.1 21.4 0 44.9-4.4 66.6-13.6 3.2-1.4 6 2.1 2.8 4.7l-3.6-.5z"/><path fill="#FF9900" d="M127.9 104.5c-2.4-3.1-15.9-1.5-21.9-.7-1.8.2-2.1-1.4-.5-2.6 10.7-7.5 28.4-5.4 30.4-2.8 2 2.6-.5 20.7-10.9 29.3-1.6 1.3-3.1.6-2.4-1.1 2.3-5.7 7.4-18.5 5.3-22.1z"/></svg>