<svg xmlns="http://www.w3.org/2000/svg" viewBox="0 0 128 128"><path fill="#0078d4" d="M30.9 102.4c-.6-1.4-.9-3-.9-4.6 0-4.4 1.8-8.3 4.7-11.2 2.9-2.9 6.8-4.7 11.2-4.7 1.6 0 3.2.3 4.6.9 7.3-10.8 19.6-17.9 33.7-17.9s26.4 7.1 33.7 17.9c1.4-.6 3-.9 4.6-.9 4.4 0 8.3 1.8 11.2 4.7 2.9 2.9 4.7 6.8 4.7 11.2 0 1.6-.3 3.2-.9 4.6h2.1c3.5 0 6.3 2.8 6.3 6.3v6.3c0 3.5-2.8 6.3-6.3 6.3H26.8c-3.5 0-6.3-2.8-6.3-6.3v-6.3c0-3.5 2.8-6.3 6.3-6.3h2.1zM36 116h88v4H36v-4z"/><path fill="#0078d4" d="M44 28h16v8H44zm24 0h16v8H68zm24 0h16v8H92z"/><path fill="#0078d4" d="M40 40h80v40H40V40zm8 8v24h64V48H48z"/></svg>