<svg xmlns="http://www.w3.org/2000/svg" viewBox="0 0 128 128"><path fill="#00758f" d="M64 4c33.137 0 60 26.863 60 60s-26.863 60-60 60S4 97.137 4 64 30.863 4 64 4zm0 8c-28.719 0-52 23.281-52 52s23.281 52 52 52 52-23.281 52-52-23.281-52-52-52z"/><path fill="#00758f" d="M64 20c24.301 0 44 19.699 44 44s-19.699 44-44 44-44-19.699-44-44 19.699-44 44-44zm0 8c-19.882 0-36 16.118-36 36s16.118 36 36 36 36-16.118 36-36-16.118-36-36-36z"/><g fill="#00758f"><path d="M39 48h50v8H39zm0 16h50v8H39z"/><text x="64" y="60" font-family="Arial, sans-serif" font-size="14" text-anchor="middle" fill="#00758f">SQL</text></g></svg>