<svg width="2451" height="2452" viewBox="0 0 2451 2452" fill="none" xmlns="http://www.w3.org/2000/svg">
<rect width="2356" height="2452" fill="url(#paint0_linear_10_176)"/>
<path d="M480.938 1984.56H510.75L495.75 1941.06L480.938 1984.56ZM522.25 2018L514.062 1994.44H477.562L469.688 2018H456.188L489 1929.31H503.062L535.812 2018H522.25ZM572.312 1961.44C560.688 1961.44 554.875 1969.4 554.875 1985.31C554.875 2001.23 560.938 2009.19 573.062 2009.19C578.354 2009.19 583.729 2007.21 589.188 2003.25V1967.06C584.146 1963.31 578.521 1961.44 572.312 1961.44ZM545.375 2003.88C543.083 1998.79 541.938 1992.79 541.938 1985.88C541.938 1978.96 543.042 1972.9 545.25 1967.69C547.5 1962.48 550.688 1958.44 554.812 1955.56C558.938 1952.65 564.25 1951.19 570.75 1951.19C577.25 1951.19 583.396 1953.58 589.188 1958.38V1923.25H601.875V2018H591.375L589.688 2011.38C583.688 2016.75 576.875 2019.44 569.25 2019.44C563.875 2019.44 559.125 2018.12 555 2015.5C550.917 2012.83 547.708 2008.96 545.375 2003.88ZM647.812 1961.44C636.188 1961.44 630.375 1969.4 630.375 1985.31C630.375 2001.23 636.438 2009.19 648.562 2009.19C653.854 2009.19 659.229 2007.21 664.688 2003.25V1967.06C659.646 1963.31 654.021 1961.44 647.812 1961.44ZM620.875 2003.88C618.583 1998.79 617.438 1992.79 617.438 1985.88C617.438 1978.96 618.542 1972.9 620.75 1967.69C623 1962.48 626.188 1958.44 630.312 1955.56C634.438 1952.65 639.75 1951.19 646.25 1951.19C652.75 1951.19 658.896 1953.58 664.688 1958.38V1923.25H677.375V2018H666.875L665.188 2011.38C659.188 2016.75 652.375 2019.44 644.75 2019.44C639.375 2019.44 634.625 2018.12 630.5 2015.5C626.417 2012.83 623.208 2008.96 620.875 2003.88ZM709 1939.5C707.625 1940.88 705.688 1941.56 703.188 1941.56C700.729 1941.56 698.792 1940.88 697.375 1939.5C695.958 1938.08 695.25 1936.23 695.25 1933.94C695.25 1931.6 695.958 1929.75 697.375 1928.38C698.792 1926.96 700.729 1926.25 703.188 1926.25C705.688 1926.25 707.625 1926.96 709 1928.38C710.417 1929.75 711.125 1931.6 711.125 1933.94C711.125 1936.23 710.417 1938.08 709 1939.5ZM696.812 2018V1953.12H709.438V2018H696.812ZM756.062 2007.62C758.271 2006 759.375 2003.92 759.375 2001.38C759.375 1998.79 758.708 1996.88 757.375 1995.62C756.042 1994.33 753.646 1993.04 750.188 1991.75L739.25 1987.69C729.792 1984.19 725.062 1978.21 725.062 1969.75C725.062 1964.21 727.208 1959.73 731.5 1956.31C735.833 1952.9 741.438 1951.19 748.312 1951.19C755.188 1951.19 761.604 1952.54 767.562 1955.25V1964.25C760.896 1962.12 754.75 1961.06 749.125 1961.06C740.917 1961.06 736.833 1963.83 736.875 1969.38C736.875 1971.58 737.542 1973.33 738.875 1974.62C740.25 1975.88 742.938 1977.27 746.938 1978.81L756.938 1982.69C761.979 1984.65 765.604 1986.98 767.812 1989.69C770.021 1992.35 771.125 1995.81 771.125 2000.06C771.125 2006.1 768.854 2010.94 764.312 2014.56C759.812 2018.15 753.562 2019.94 745.562 2019.94C737.604 2019.94 730.521 2018.31 724.312 2015.06V2006.12C732.354 2008.75 739.104 2010.06 744.562 2010.06C750.062 2010.06 753.896 2009.25 756.062 2007.62ZM834.188 1984.56H864L849 1941.06L834.188 1984.56ZM875.5 2018L867.312 1994.44H830.812L822.938 2018H809.438L842.25 1929.31H856.312L889.062 2018H875.5ZM942.688 1967.31C939.854 1963.4 935.458 1961.44 929.5 1961.44C923.542 1961.44 917.854 1963.4 912.438 1967.31V2003C917.812 2007.08 923.458 2009.15 929.375 2009.19C941.167 2009.19 947.042 2001.25 947 1985.38C947 1977.25 945.562 1971.23 942.688 1967.31ZM899.812 2018V1923.25H912.438V1959.25C918.854 1953.88 925.979 1951.19 933.812 1951.19C941.688 1951.19 948 1954.19 952.75 1960.19C957.542 1966.15 959.938 1974.35 959.938 1984.81C959.938 1995.27 957.417 2003.67 952.375 2010C947.333 2016.29 940.771 2019.44 932.688 2019.44C924.604 2019.44 917.604 2016.69 911.688 2011.19L910.25 2018H899.812ZM994.5 2010.06C1000.29 2010.06 1006.17 2007.9 1012.12 2003.56V1990.5C1007.71 1989.38 1003.19 1988.81 998.562 1988.81C988.938 1988.81 984.125 1992.52 984.125 1999.94C984.125 2003.19 985.021 2005.69 986.812 2007.44C988.604 2009.19 991.167 2010.06 994.5 2010.06ZM976.875 2014.5C973.25 2011.04 971.438 2006.29 971.438 2000.25C971.438 1994.21 973.646 1989.35 978.062 1985.69C982.521 1981.98 988.5 1980.12 996 1980.12C1000.96 1980.12 1006.33 1980.85 1012.12 1982.31V1973.81C1012.12 1969.19 1011.08 1965.96 1009 1964.12C1006.92 1962.25 1002.79 1961.31 996.625 1961.31C990.5 1961.31 983.562 1962.62 975.812 1965.25V1956.31C982.312 1952.9 990.083 1951.19 999.125 1951.19C1008.17 1951.19 1014.6 1952.88 1018.44 1956.25C1022.27 1959.62 1024.19 1964.77 1024.19 1971.69V2018H1013.69L1012.62 2011.38C1006.12 2016.92 999.062 2019.69 991.438 2019.69C985.396 2019.69 980.542 2017.96 976.875 2014.5ZM1085.94 1967.31C1083.1 1963.4 1078.71 1961.44 1072.75 1961.44C1066.79 1961.44 1061.1 1963.4 1055.69 1967.31V2003C1061.06 2007.08 1066.71 2009.15 1072.62 2009.19C1084.42 2009.19 1090.29 2001.25 1090.25 1985.38C1090.25 1977.25 1088.81 1971.23 1085.94 1967.31ZM1043.06 2018V1923.25H1055.69V1959.25C1062.1 1953.88 1069.23 1951.19 1077.06 1951.19C1084.94 1951.19 1091.25 1954.19 1096 1960.19C1100.79 1966.15 1103.19 1974.35 1103.19 1984.81C1103.19 1995.27 1100.67 2003.67 1095.62 2010C1090.58 2016.29 1084.02 2019.44 1075.94 2019.44C1067.85 2019.44 1060.85 2016.69 1054.94 2011.19L1053.5 2018H1043.06ZM1137.75 2010.06C1143.54 2010.06 1149.42 2007.9 1155.38 2003.56V1990.5C1150.96 1989.38 1146.44 1988.81 1141.81 1988.81C1132.19 1988.81 1127.38 1992.52 1127.38 1999.94C1127.38 2003.19 1128.27 2005.69 1130.06 2007.44C1131.85 2009.19 1134.42 2010.06 1137.75 2010.06ZM1120.12 2014.5C1116.5 2011.04 1114.69 2006.29 1114.69 2000.25C1114.69 1994.21 1116.9 1989.35 1121.31 1985.69C1125.77 1981.98 1131.75 1980.12 1139.25 1980.12C1144.21 1980.12 1149.58 1980.85 1155.38 1982.31V1973.81C1155.38 1969.19 1154.33 1965.96 1152.25 1964.12C1150.17 1962.25 1146.04 1961.31 1139.88 1961.31C1133.75 1961.31 1126.81 1962.62 1119.06 1965.25V1956.31C1125.56 1952.9 1133.33 1951.19 1142.38 1951.19C1151.42 1951.19 1157.85 1952.88 1161.69 1956.25C1165.52 1959.62 1167.44 1964.77 1167.44 1971.69V2018H1156.94L1155.88 2011.38C1149.38 2016.92 1142.31 2019.69 1134.69 2019.69C1128.65 2019.69 1123.79 2017.96 1120.12 2014.5ZM1277.38 1929.31H1290.44V1985.62C1290.44 1996.71 1287.42 2005.25 1281.38 2011.25C1275.38 2017.21 1266.75 2020.19 1255.5 2020.19C1244.25 2020.19 1235.6 2017.23 1229.56 2011.31C1223.56 2005.35 1220.56 1996.79 1220.56 1985.62V1929.31H1233.62V1986.75C1233.62 1993.92 1235.5 1999.46 1239.25 2003.38C1243 2007.25 1248.42 2009.19 1255.5 2009.19C1262.58 2009.19 1268 2007.25 1271.75 2003.38C1275.5 1999.46 1277.38 1993.92 1277.38 1986.75V1929.31ZM1354.06 2018V1974.62C1354.06 1970.08 1353.15 1966.75 1351.31 1964.62C1349.48 1962.5 1346.6 1961.44 1342.69 1961.44C1335.94 1961.44 1329.31 1963.6 1322.81 1967.94V2018H1310.19V1953.12H1320.81L1322.06 1960.25C1330.19 1954.21 1338.73 1951.19 1347.69 1951.19C1353.94 1951.19 1358.67 1952.83 1361.88 1956.12C1365.12 1959.42 1366.75 1964.17 1366.75 1970.38V2018H1354.06ZM1398.12 1939.5C1396.75 1940.88 1394.81 1941.56 1392.31 1941.56C1389.85 1941.56 1387.92 1940.88 1386.5 1939.5C1385.08 1938.08 1384.38 1936.23 1384.38 1933.94C1384.38 1931.6 1385.08 1929.75 1386.5 1928.38C1387.92 1926.96 1389.85 1926.25 1392.31 1926.25C1394.81 1926.25 1396.75 1926.96 1398.12 1928.38C1399.54 1929.75 1400.25 1931.6 1400.25 1933.94C1400.25 1936.23 1399.54 1938.08 1398.12 1939.5ZM1385.94 2018V1953.12H1398.56V2018H1385.94ZM1435.06 2018L1409.56 1953.12H1423.12L1441.44 2006.5L1459.75 1953.12H1472.81L1447.5 2018H1435.06ZM1523 1976.5C1523 1966.04 1518.23 1960.81 1508.69 1960.81C1497.73 1960.81 1491.83 1967.17 1491 1979.88H1522.88C1522.96 1979.21 1523 1978.08 1523 1976.5ZM1496.44 2004.56C1499.9 2008.06 1505.12 2009.81 1512.12 2009.81C1519.12 2009.81 1526.12 2008.48 1533.12 2005.81V2014.94C1527 2018.27 1519.08 2019.94 1509.38 2019.94C1499.67 2019.94 1492.12 2017.04 1486.75 2011.25C1481.38 2005.42 1478.69 1996.96 1478.69 1985.88C1478.69 1974.79 1481.38 1966.25 1486.75 1960.25C1492.12 1954.21 1499.65 1951.19 1509.31 1951.19C1517.44 1951.19 1523.67 1953.48 1528 1958.06C1532.33 1962.6 1534.5 1969.06 1534.5 1977.44C1534.5 1981.44 1534.17 1985.06 1533.5 1988.31H1491C1491.17 1995.65 1492.98 2001.06 1496.44 2004.56ZM1561.81 1962.69C1568.15 1955.94 1574.56 1952.56 1581.06 1952.56C1583.15 1952.56 1585.08 1952.71 1586.88 1953V1964.5C1584.12 1964.17 1581.83 1964 1580 1964C1573.17 1964 1567.31 1966.04 1562.44 1970.12V2018H1549.81V1953.12H1560.44L1561.81 1962.69ZM1624.69 2007.62C1626.9 2006 1628 2003.92 1628 2001.38C1628 1998.79 1627.33 1996.88 1626 1995.62C1624.67 1994.33 1622.27 1993.04 1618.81 1991.75L1607.88 1987.69C1598.42 1984.19 1593.69 1978.21 1593.69 1969.75C1593.69 1964.21 1595.83 1959.73 1600.12 1956.31C1604.46 1952.9 1610.06 1951.19 1616.94 1951.19C1623.81 1951.19 1630.23 1952.54 1636.19 1955.25V1964.25C1629.52 1962.12 1623.38 1961.06 1617.75 1961.06C1609.54 1961.06 1605.46 1963.83 1605.5 1969.38C1605.5 1971.58 1606.17 1973.33 1607.5 1974.62C1608.88 1975.88 1611.56 1977.27 1615.56 1978.81L1625.56 1982.69C1630.6 1984.65 1634.23 1986.98 1636.44 1989.69C1638.65 1992.35 1639.75 1995.81 1639.75 2000.06C1639.75 2006.1 1637.48 2010.94 1632.94 2014.56C1628.44 2018.15 1622.19 2019.94 1614.19 2019.94C1606.23 2019.94 1599.15 2018.31 1592.94 2015.06V2006.12C1600.98 2008.75 1607.73 2010.06 1613.19 2010.06C1618.69 2010.06 1622.52 2009.25 1624.69 2007.62ZM1665.5 1939.5C1664.12 1940.88 1662.19 1941.56 1659.69 1941.56C1657.23 1941.56 1655.29 1940.88 1653.88 1939.5C1652.46 1938.08 1651.75 1936.23 1651.75 1933.94C1651.75 1931.6 1652.46 1929.75 1653.88 1928.38C1655.29 1926.96 1657.23 1926.25 1659.69 1926.25C1662.19 1926.25 1664.12 1926.96 1665.5 1928.38C1666.92 1929.75 1667.62 1931.6 1667.62 1933.94C1667.62 1936.23 1666.92 1938.08 1665.5 1939.5ZM1653.31 2018V1953.12H1665.94V2018H1653.31ZM1707.69 2018.88C1695.56 2018.88 1689.5 2012.83 1689.5 2000.75V1963.06H1677.75V1954.88L1689.88 1953.38L1691.81 1934.94H1702.19V1953.12H1721.38V1963.06H1702.19V2000.06C1702.19 2003.23 1702.88 2005.46 1704.25 2006.75C1705.67 2008 1708.1 2008.62 1711.56 2008.62C1715.02 2008.62 1718.46 2008.21 1721.88 2007.38V2016.44C1717.71 2018.06 1712.98 2018.88 1707.69 2018.88ZM1753.62 2042C1750.5 2044.58 1746.85 2045.88 1742.69 2045.88C1738.52 2045.88 1734.9 2045.29 1731.81 2044.12V2035C1738.56 2036.71 1743.48 2036.23 1746.56 2033.56C1748.4 2031.98 1750.04 2029.19 1751.5 2025.19L1753.94 2018.62L1727.81 1953.12H1741.38L1760.06 2006.25L1778.12 1953.12H1791.19L1761.62 2029.38C1759.42 2035.25 1756.75 2039.46 1753.62 2042Z" fill="#FF8200"/>
<path d="M2095.67 1024.01C2095.67 1004.92 2088.1 986.616 2074.62 973.11C2061.14 959.603 2042.84 951.998 2023.76 951.964C2042.82 951.964 2061.12 944.388 2074.61 930.901C2088.1 917.414 2095.67 899.122 2095.67 880.048C2095.71 899.133 2103.31 917.426 2116.81 930.908C2130.32 944.391 2148.63 951.964 2167.71 951.964C2148.62 951.998 2130.31 959.599 2116.81 973.102C2103.31 986.605 2095.71 1004.91 2095.67 1024.01Z" stroke="#FF8200" stroke-width="8" stroke-linejoin="round"/>
<path d="M1951.4 681.79C1951.4 662.701 1943.72 644.391 1930.06 630.893C1916.39 617.394 1897.86 609.811 1878.54 609.811C1897.86 609.811 1916.39 602.228 1930.06 588.729C1943.72 575.231 1951.4 556.922 1951.4 537.832C1951.4 556.836 1959 575.068 1972.56 588.552C1986.11 602.037 2004.52 609.678 2023.76 609.811C2004.44 609.811 1985.9 617.394 1972.24 630.893C1958.57 644.391 1950.89 662.701 1950.89 681.79H1951.4Z" stroke="#FF8200" stroke-width="8" stroke-linejoin="round"/>
<path d="M337.321 1755.24C235.311 1690.13 165.314 1577.07 167.505 1450.51" stroke="white" stroke-width="8" stroke-linejoin="round"/>
<path d="M336.492 1755.79C390.792 1792.2 541.064 1865.02 707.752 1865.02" stroke="white" stroke-width="8"/>
<path d="M167.506 1450.51C167.506 1257.86 314.8 1099.78 503.12 1082.26C502.876 1076.78 502.268 1071.43 502.268 1065.95C502.268 931.597 611.339 822.678 745.731 822.678C810.98 822.678 870.141 848.478 913.721 890.22C988.708 691.002 1180.56 548.739 1406.13 548.739C1696.82 548.739 1932.49 784.344 1932.49 1074.83V1075.08C2090.86 1126.55 2205.3 1275.15 2205.3 1450.51C2205.3 1555.83 2164.09 1651.52 2096.91 1722.33" stroke="white" stroke-width="8" stroke-linejoin="round"/>
<path d="M758.505 1460.12C734.163 1469.43 706.966 1474.08 676.915 1474.08C626.128 1474.08 587.662 1460.58 561.517 1433.57C535.372 1406.27 522.3 1366.35 522.3 1313.83C522.3 1261.92 535.973 1221.71 563.32 1193.2C590.667 1164.69 629.133 1150.44 678.718 1150.44C705.163 1150.44 730.256 1154.64 753.997 1163.04V1216.16C726.65 1210.15 704.262 1207.15 686.831 1207.15C655.578 1207.15 632.137 1215.41 616.512 1231.91C601.185 1248.42 593.521 1273.62 593.521 1307.53V1317.88C593.521 1351.5 601.035 1376.55 616.061 1393.06C631.087 1409.26 654.076 1417.37 685.028 1417.37C702.458 1417.37 726.95 1413.92 758.505 1407.01V1460.12Z" fill="white"/>
<path d="M905.561 1463.74C892.94 1468.84 879.416 1471.39 864.992 1471.39C824.422 1471.39 804.138 1448.72 804.138 1403.41V1135.13H869.951V1398.01C869.951 1406.42 871.303 1412.42 874.007 1416.01C877.012 1419.31 881.821 1420.96 888.431 1420.96C892.639 1420.96 898.348 1420.52 905.561 1419.61V1463.74Z" fill="white"/>
<path d="M1048.65 1474.99C1012.89 1474.99 984.941 1464.33 964.807 1443.03C944.671 1421.42 934.604 1391.4 934.604 1353C934.604 1314.89 944.671 1285.18 964.807 1263.87C984.941 1242.27 1012.89 1231.46 1048.65 1231.46C1084.41 1231.46 1112.36 1242.27 1132.49 1263.87C1152.63 1285.18 1162.69 1314.89 1162.69 1353C1162.69 1391.4 1152.63 1421.42 1132.49 1443.03C1112.36 1464.33 1084.41 1474.99 1048.65 1474.99ZM1048.65 1424.56C1080.2 1424.56 1095.98 1400.71 1095.98 1353C1095.98 1305.58 1080.2 1281.88 1048.65 1281.88C1017.1 1281.88 1001.32 1305.58 1001.32 1353C1001.32 1400.71 1017.1 1424.56 1048.65 1424.56Z" fill="white"/>
<path d="M1367.23 1468.23L1360.92 1443.92C1334.17 1464.63 1306.23 1474.99 1277.08 1474.99C1256.64 1474.99 1240.71 1468.98 1229.3 1456.98C1217.88 1444.68 1212.16 1427.87 1212.16 1406.57V1238.21H1277.98V1388.11C1277.98 1412.42 1288.5 1424.56 1309.54 1424.56C1325.16 1424.56 1340.49 1419.76 1355.51 1410.17V1238.21H1421.33V1468.23H1367.23Z" fill="white"/>
<path d="M1639.77 1468.23L1634.36 1447.98C1615.74 1464.78 1593.65 1473.18 1568.1 1473.18C1549.16 1473.18 1532.49 1468.53 1518.06 1459.23C1503.64 1449.63 1492.37 1435.81 1484.25 1417.82C1476.44 1399.81 1472.54 1378.65 1472.54 1354.35C1472.54 1317.14 1481.4 1287.42 1499.13 1265.22C1516.86 1242.71 1540.3 1231.46 1569.46 1231.46C1593.2 1231.46 1613.78 1238.21 1631.21 1251.71V1135.13H1697.02V1468.23H1639.77ZM1589.74 1423.67C1604.16 1423.67 1617.98 1419.46 1631.21 1411.06V1292.22C1618.29 1284.72 1603.41 1280.97 1586.58 1280.97C1570.65 1280.97 1558.78 1286.98 1550.97 1298.98C1543.16 1310.68 1539.25 1328.54 1539.25 1352.55C1539.25 1376.55 1543.3 1394.41 1551.42 1406.11C1559.83 1417.82 1572.61 1423.67 1589.74 1423.67Z" fill="white"/>
<path d="M1040.34 1877.5C1016 1886.81 988.803 1891.45 958.752 1891.45C907.966 1891.45 869.5 1877.96 843.355 1850.94C817.21 1823.63 804.138 1783.73 804.138 1731.21C804.138 1679.29 817.811 1639.09 845.158 1610.57C872.505 1582.06 910.971 1567.81 960.556 1567.81C987.001 1567.81 1012.09 1572.01 1035.83 1580.42V1633.53C1008.49 1627.53 986.099 1624.53 968.669 1624.53C937.415 1624.53 913.975 1632.79 898.349 1649.29C883.023 1665.79 875.359 1691 875.359 1724.91V1735.26C875.359 1768.86 882.873 1793.93 897.899 1810.43C912.923 1826.64 935.914 1834.74 966.866 1834.74C984.296 1834.74 1008.79 1831.28 1040.34 1824.39V1877.5Z" fill="white"/>
<path d="M1187.4 1881.1C1174.78 1886.2 1161.26 1888.75 1146.83 1888.75C1106.26 1888.75 1085.98 1866.1 1085.98 1820.79V1552.51H1151.79V1815.38C1151.79 1823.78 1153.14 1829.79 1155.85 1833.39C1158.85 1836.69 1163.66 1838.34 1170.27 1838.34C1174.48 1838.34 1180.19 1837.89 1187.4 1836.99V1881.1Z" fill="white"/>
<path d="M1385.83 1885.61L1379.52 1861.3C1352.77 1882 1324.83 1892.35 1295.67 1892.35C1275.24 1892.35 1259.31 1886.35 1247.89 1874.36C1236.47 1862.04 1230.76 1845.24 1230.76 1823.93V1655.59H1296.58V1805.48C1296.58 1829.79 1307.1 1841.94 1328.12 1841.94C1343.76 1841.94 1359.09 1837.14 1374.1 1827.53V1655.59H1439.92V1885.61H1385.83Z" fill="white"/>
<path d="M1502.86 1885.61V1552.51H1568.66V1673.14C1577.37 1665.64 1587.6 1659.78 1599.32 1655.59C1611.04 1651.08 1622.61 1648.83 1634.02 1648.83C1663.18 1648.83 1686.16 1659.49 1703 1680.8C1720.12 1702.1 1728.69 1730.9 1728.69 1767.22C1728.69 1790.92 1724.78 1812.08 1716.96 1830.69C1709.16 1849.29 1697.88 1864 1683.16 1874.8C1668.43 1885.3 1651.46 1890.56 1632.23 1890.56C1618.4 1890.56 1605.48 1888.16 1593.46 1883.35C1581.44 1878.55 1571.38 1871.81 1563.26 1863.09L1557.4 1885.61H1502.86ZM1612.85 1698.35C1597.21 1698.35 1582.49 1702.4 1568.66 1710.5V1828.88C1581.88 1836.99 1596.62 1841.04 1612.85 1841.04C1629.67 1841.04 1641.99 1835.34 1649.81 1823.93C1657.91 1812.53 1661.98 1794.52 1661.98 1769.92C1661.98 1745.01 1658.07 1726.86 1650.25 1715.45C1642.45 1704.04 1629.97 1698.35 1612.85 1698.35Z" fill="white"/>
<path d="M1878.01 1822.14C1878.01 1816.13 1876.2 1811.48 1872.59 1808.19C1869.28 1804.88 1862.37 1801.28 1851.85 1797.38L1816.7 1783.42C1798.36 1776.23 1785.14 1767.37 1777.02 1756.87C1768.91 1746.36 1764.86 1733.01 1764.86 1716.8C1764.86 1696.39 1772.97 1680.04 1789.19 1667.74C1805.72 1655.14 1827.66 1648.83 1855.01 1648.83C1880.25 1648.83 1903.54 1653.79 1924.88 1663.69V1707.35C1902.04 1700.45 1880.71 1697 1860.87 1697C1848.55 1697 1839.53 1698.5 1833.82 1701.49C1828.11 1704.5 1825.26 1709.3 1825.26 1715.9C1825.26 1721 1826.91 1725.21 1830.22 1728.5C1833.82 1731.51 1841.18 1735.26 1852.31 1739.76L1886.57 1753.71C1905.19 1761.21 1918.42 1769.92 1926.23 1779.82C1934.35 1789.72 1938.41 1802.63 1938.41 1818.53C1938.41 1840.74 1929.84 1858.75 1912.71 1872.55C1895.87 1886.05 1873.64 1892.81 1845.99 1892.81C1815.04 1892.81 1787.69 1886.66 1763.95 1874.36V1830.69C1793.7 1840 1820.9 1844.64 1845.54 1844.64C1867.18 1844.64 1878.01 1837.14 1878.01 1822.14Z" fill="white"/>
<path d="M926.392 459.539C926.392 440.45 918.942 422.142 905.68 408.642C892.418 395.143 874.431 387.56 855.676 387.56C864.962 387.56 874.158 385.699 882.737 382.081C891.318 378.464 899.113 373.162 905.68 366.478C912.246 359.794 917.455 351.86 921.009 343.126C924.563 334.393 926.392 325.033 926.392 315.581C926.392 325.033 928.222 334.393 931.775 343.126C935.329 351.86 940.538 359.794 947.104 366.478C953.671 373.162 961.466 378.464 970.047 382.081C978.626 385.699 987.822 387.56 997.108 387.56C978.353 387.56 960.366 395.143 947.104 408.642C933.842 422.142 926.392 440.45 926.392 459.539Z" stroke="#FF8200" stroke-width="8" stroke-linejoin="round"/>
<path d="M324.735 1023.88C324.669 1004.82 317.116 986.558 303.732 973.102C290.348 959.646 272.222 952.09 253.325 952.09C272.265 952.09 290.427 944.5 303.819 930.989C317.211 917.479 324.735 899.154 324.735 880.048C324.718 889.503 326.551 898.868 330.126 907.607C333.701 916.347 338.949 924.29 345.569 930.982C352.192 937.673 360.055 942.982 368.711 946.604C377.369 950.225 386.648 952.09 396.02 952.09C377.114 952.09 358.983 959.667 345.614 973.154C332.246 986.64 324.735 1004.93 324.735 1024.01V1023.88Z" stroke="#FF8200" stroke-width="8" stroke-linejoin="round"/>
<path d="M651.609 621.681C651.609 626.354 652.114 630.142 652.998 632.92C654.009 635.698 655.271 638.729 657.039 642.012C657.671 643.023 657.923 644.033 657.923 644.917C657.923 646.179 657.166 647.442 655.524 648.705L647.568 654.009C646.432 654.766 645.295 655.145 644.285 655.145C643.022 655.145 641.759 654.514 640.497 653.377C638.729 651.483 637.213 649.463 635.951 647.442C634.688 645.296 633.425 642.896 632.036 639.992C622.186 651.61 609.811 657.418 594.91 657.418C584.303 657.418 575.842 654.388 569.654 648.326C563.467 642.265 560.31 634.183 560.31 624.081C560.31 613.347 564.098 604.634 571.801 598.067C579.504 591.501 589.733 588.217 602.739 588.217C607.033 588.217 611.453 588.596 616.125 589.228C620.797 589.859 625.596 590.869 630.647 592.006V582.787C630.647 573.19 628.626 566.497 624.712 562.583C620.671 558.668 613.852 556.774 604.128 556.774C599.709 556.774 595.163 557.279 590.49 558.416C585.818 559.552 581.272 560.941 576.852 562.709C574.832 563.593 573.316 564.098 572.432 564.351C571.548 564.603 570.917 564.73 570.412 564.73C568.644 564.73 567.76 563.467 567.76 560.815V554.627C567.76 552.607 568.013 551.091 568.644 550.207C569.275 549.323 570.412 548.44 572.18 547.556C576.6 545.283 581.903 543.388 588.091 541.873C594.279 540.231 600.845 539.474 607.79 539.474C622.818 539.474 633.804 542.883 640.876 549.702C647.821 556.521 651.357 566.876 651.357 580.767V621.681H651.609ZM600.34 640.876C604.507 640.876 608.801 640.118 613.347 638.603C617.893 637.087 621.934 634.309 625.343 630.521C627.364 628.122 628.879 625.47 629.637 622.439C630.394 619.408 630.9 615.746 630.9 611.453V606.149C627.237 605.265 623.323 604.507 619.282 604.002C615.241 603.497 611.326 603.245 607.412 603.245C598.951 603.245 592.763 604.886 588.596 608.296C584.429 611.705 582.408 616.504 582.408 622.818C582.408 628.753 583.924 633.173 587.081 636.203C590.111 639.36 594.531 640.876 600.34 640.876ZM701.742 654.514C699.469 654.514 697.954 654.135 696.943 653.251C695.933 652.493 695.049 650.726 694.292 648.326L664.616 550.713C663.858 548.187 663.479 546.545 663.479 545.661C663.479 543.641 664.49 542.504 666.51 542.504H678.886C681.285 542.504 682.927 542.883 683.81 543.767C684.821 544.525 685.578 546.293 686.336 548.692L707.551 632.289L727.25 548.692C727.882 546.167 728.639 544.525 729.65 543.767C730.66 543.01 732.428 542.504 734.701 542.504H744.803C747.203 542.504 748.844 542.883 749.854 543.767C750.865 544.525 751.749 546.293 752.254 548.692L772.206 633.299L794.052 548.692C794.81 546.167 795.694 544.525 796.578 543.767C797.588 543.01 799.229 542.504 801.502 542.504H813.246C815.267 542.504 816.403 543.515 816.403 545.661C816.403 546.293 816.277 546.924 816.151 547.682C816.025 548.44 815.772 549.45 815.267 550.839L784.834 648.452C784.076 650.978 783.192 652.62 782.182 653.377C781.172 654.135 779.53 654.64 777.383 654.64H766.523C764.124 654.64 762.482 654.261 761.472 653.377C760.462 652.493 759.578 650.852 759.073 648.326L739.499 566.876L720.052 648.2C719.421 650.726 718.663 652.367 717.653 653.251C716.643 654.135 714.875 654.514 712.602 654.514H701.742ZM864.011 657.923C857.444 657.923 850.878 657.166 844.564 655.65C838.25 654.135 833.325 652.493 830.042 650.599C828.021 649.463 826.632 648.2 826.127 647.063C825.622 645.927 825.369 644.664 825.369 643.528V637.087C825.369 634.436 826.379 633.173 828.274 633.173C829.031 633.173 829.789 633.299 830.547 633.552C831.304 633.804 832.441 634.309 833.704 634.814C837.997 636.709 842.669 638.224 847.594 639.234C852.645 640.244 857.57 640.75 862.622 640.75C870.577 640.75 876.765 639.36 881.058 636.582C885.352 633.804 887.625 629.763 887.625 624.586C887.625 621.05 886.488 618.146 884.215 615.746C881.942 613.347 877.649 611.2 871.461 609.18L853.151 603.497C843.932 600.593 837.113 596.299 832.946 590.617C828.779 585.06 826.632 578.873 826.632 572.306C826.632 567.003 827.769 562.33 830.042 558.289C832.315 554.248 835.345 550.713 839.134 547.934C842.922 545.03 847.215 542.883 852.267 541.368C857.318 539.853 862.622 539.221 868.178 539.221C870.956 539.221 873.86 539.347 876.638 539.726C879.543 540.105 882.195 540.61 884.847 541.115C887.372 541.747 889.771 542.378 892.044 543.136C894.318 543.894 896.085 544.651 897.348 545.409C899.116 546.419 900.379 547.429 901.137 548.566C901.894 549.576 902.273 550.965 902.273 552.733V558.668C902.273 561.32 901.263 562.709 899.369 562.709C898.358 562.709 896.717 562.204 894.57 561.194C887.372 557.91 879.29 556.269 870.324 556.269C863.127 556.269 857.444 557.405 853.529 559.805C849.615 562.204 847.594 565.866 847.594 571.043C847.594 574.579 848.857 577.61 851.383 580.009C853.908 582.409 858.581 584.808 865.273 586.955L883.205 592.637C892.297 595.542 898.864 599.583 902.778 604.76C906.693 609.937 908.587 615.873 908.587 622.439C908.587 627.869 907.451 632.794 905.304 637.087C903.031 641.381 900 645.169 896.085 648.2C892.171 651.357 887.499 653.63 882.069 655.272C876.386 657.039 870.451 657.923 864.011 657.923Z" fill="white"/>
<path d="M887.877 719.295C846.331 749.981 785.97 766.271 734.069 766.271C661.333 766.271 595.794 739.373 546.292 694.671C542.378 691.135 545.914 686.336 550.586 689.114C604.128 720.179 670.172 738.995 738.489 738.995C784.581 738.995 835.219 729.397 881.816 709.698C888.761 706.541 894.696 714.244 887.877 719.295Z" fill="#FF8200"/>
<path d="M905.178 699.596C899.874 692.777 870.072 696.313 856.56 697.954C852.519 698.459 851.888 694.924 855.55 692.272C879.29 675.603 918.311 680.401 922.857 685.958C927.403 691.64 921.594 730.661 899.369 749.35C895.959 752.254 892.676 750.739 894.191 746.95C899.242 734.449 910.481 706.289 905.178 699.596Z" fill="#FF8200"/>
<defs>
<linearGradient id="paint0_linear_10_176" x1="2188" y1="1104" x2="1738" y2="2637" gradientUnits="userSpaceOnUse">
<stop stop-color="#760A80"/>
<stop offset="0.447115" stop-color="#5916A6"/>
<stop offset="0.980769" stop-color="#1E0EAD"/>
</linearGradient>
</defs>
</svg>
